<mxfile host="app.diagrams.net" modified="2023-05-13T19:11:01.684Z" agent="Mozilla/5.0 (Windows NT 10.0; Win64; x64; rv:109.0) Gecko/20100101 Firefox/112.0" etag="zaxEe0Aq9cBiKzA3BH8x" version="21.3.0" type="github">
  <diagram name="Page-1" id="ehre2qp33Zuy3RMLZv8k">
    <mxGraphModel dx="1050" dy="525" grid="1" gridSize="10" guides="1" tooltips="1" connect="1" arrows="1" fold="1" page="1" pageScale="1" pageWidth="850" pageHeight="1100" math="0" shadow="0">
      <root>
        <mxCell id="0" />
        <mxCell id="1" parent="0" />
        <object label="&lt;div&gt;Клиент&lt;/div&gt;" id="K6cpROR9SQ_gSIM2ouo7-1">
          <mxCell style="shape=umlActor;verticalLabelPosition=bottom;verticalAlign=top;html=1;outlineConnect=0;" vertex="1" parent="1">
            <mxGeometry x="60" y="260" width="70" height="130" as="geometry" />
          </mxCell>
        </object>
        <mxCell id="K6cpROR9SQ_gSIM2ouo7-5" value="" style="endArrow=classic;html=1;rounded=0;" edge="1" parent="1" target="K6cpROR9SQ_gSIM2ouo7-11">
          <mxGeometry width="50" height="50" relative="1" as="geometry">
            <mxPoint x="140" y="320" as="sourcePoint" />
            <mxPoint x="230" y="200" as="targetPoint" />
          </mxGeometry>
        </mxCell>
        <mxCell id="K6cpROR9SQ_gSIM2ouo7-6" value="" style="endArrow=classic;html=1;rounded=0;" edge="1" parent="1" target="K6cpROR9SQ_gSIM2ouo7-10">
          <mxGeometry width="50" height="50" relative="1" as="geometry">
            <mxPoint x="140" y="320" as="sourcePoint" />
            <mxPoint x="240" y="320" as="targetPoint" />
          </mxGeometry>
        </mxCell>
        <mxCell id="K6cpROR9SQ_gSIM2ouo7-7" value="" style="endArrow=classic;html=1;rounded=0;" edge="1" parent="1" target="K6cpROR9SQ_gSIM2ouo7-12">
          <mxGeometry width="50" height="50" relative="1" as="geometry">
            <mxPoint x="140" y="320" as="sourcePoint" />
            <mxPoint x="280" y="400" as="targetPoint" />
          </mxGeometry>
        </mxCell>
        <mxCell id="K6cpROR9SQ_gSIM2ouo7-10" value="Веб-сайт Банка" style="rounded=0;whiteSpace=wrap;html=1;" vertex="1" parent="1">
          <mxGeometry x="280" y="260" width="120" height="60" as="geometry" />
        </mxCell>
        <mxCell id="K6cpROR9SQ_gSIM2ouo7-11" value="&lt;div&gt;Отдетелние Банка,&lt;/div&gt;&lt;div&gt;консультация со специалистом вживую&lt;br&gt;&lt;/div&gt;" style="rounded=0;whiteSpace=wrap;html=1;" vertex="1" parent="1">
          <mxGeometry x="280" y="160" width="120" height="60" as="geometry" />
        </mxCell>
        <mxCell id="K6cpROR9SQ_gSIM2ouo7-12" value="Мобильное приложение" style="rounded=0;whiteSpace=wrap;html=1;" vertex="1" parent="1">
          <mxGeometry x="280" y="370" width="120" height="60" as="geometry" />
        </mxCell>
      </root>
    </mxGraphModel>
  </diagram>
</mxfile>
